<svg style="background:white;" viewBox="0 0 16 16" xmlns="http://www.w3.org/2000/svg">
    <!-- 原始路径 -->
    <path fill="black" d="M8 3.86C8.7 3.86 9.38 3.95 10 4.13c1.55-1.04 2.22-0.82 2.22-0.82 0.44 1.1 0.16 1.92 0.08 2.12 0.51 0.57 0.82 1.27 0.82 2.15 0 3.07-1.87 3.75-3.65 3.95 0.29 0.25 0.53 0.73 0.53 1.47 0 1.08 0 1.94 0 2.21 0 0.21 0.15 0.46 0.55 0.38C13.806 14.491 16 11.437 16 8 16 3.58 12.42 0 8 0Z"/>
    <!-- 镜像路径（使用变换自动生成） -->
    <path fill="black" d="M8 3.86C8.7 3.86 9.38 3.95 10 4.13c1.55-1.04 2.22-0.82 2.22-0.82 0.44 1.1 0.16 1.92 0.08 2.12 0.51 0.57 0.82 1.27 0.82 2.15 0 3.07-1.87 3.75-3.65 3.95 0.29 0.25 0.53 0.73 0.53 1.47 0 1.08 0 1.94 0 2.21 0 0.21 0.15 0.46 0.55 0.38C13.806 14.491 16 11.437 16 8 16 3.58 12.42 0 8 0Z"
          transform="scale(-1,1) translate(-16,0)"/>
</svg>